<svg version="1.1" id="Layer_1" xmlns="http://www.w3.org/2000/svg" xmlns:xlink="http://www.w3.org/1999/xlink" x="0px" y="0px"
	 width="100%" viewBox="0 0 1024 1024" enable-background="new 0 0 1024 1024" xml:space="preserve">
<path fill="none" opacity="1.000000" stroke="#000000" stroke-linecap="round" stroke-linejoin="round" stroke-width="5.000000"
	d="
M745.000000,476.500000 
	C745.286438,462.735229 741.024841,449.791687 736.835632,437.054077 
	C728.074341,410.414398 715.425354,385.571899 697.919250,363.564209 
	C678.544922,339.207916 655.423340,319.038940 628.009827,303.982147 
	C610.562134,294.399170 592.417419,286.713715 573.024597,281.900909 
	C563.090454,279.435455 553.140930,277.425873 543.018494,275.878998 
	C524.838989,273.100861 506.609589,273.125000 488.519348,275.170959 
	C460.141968,278.380432 432.940033,286.120483 407.486725,299.474670 
	C389.196381,309.070770 372.374207,320.587616 356.868286,334.351624 
	C342.897797,346.752686 331.017456,360.819061 320.620331,376.081970 
	C304.591095,399.612762 292.555420,425.103607 285.952271,452.988708 
	C284.308197,459.931549 282.166931,466.750031 282.500000,474.000000 
"/>
<path fill="none" opacity="1.000000" stroke="#000000" stroke-linecap="round" stroke-linejoin="round" stroke-width="12.000000"
	d="
M813.250000,489.000000 
	C814.287354,480.200348 811.759949,477.773590 802.501892,477.446289 
	C781.001831,476.686218 759.499878,477.183380 738.000122,476.987915 
	C732.799866,476.940613 730.689941,475.374573 730.039307,470.494751 
	C726.987305,447.605530 718.974060,426.317383 708.362244,406.072205 
	C700.400085,390.882233 690.546631,376.885864 679.124451,363.890625 
	C663.904175,346.574097 646.639282,331.944366 627.001648,319.997314 
	C604.511963,306.315155 580.249146,297.115265 554.481873,292.093140 
	C539.510315,289.175110 524.278687,288.249573 508.999878,288.492950 
	C480.899719,288.940460 453.863708,294.791321 428.047394,305.613037 
	C405.669830,314.993286 385.637299,328.156830 367.389923,344.376160 
	C341.707458,367.204285 323.121490,394.831085 309.603455,426.044800 
	C303.657867,439.773499 299.617889,454.216858 297.002167,469.000397 
	C296.135864,473.896576 295.007019,474.973724 289.999969,474.983063 
	C268.666687,475.022888 247.333237,475.034180 226.000061,474.977142 
	C220.332977,474.961975 214.666672,474.666656 209.000000,474.500000 
"/>
<path fill="none" opacity="1.000000" stroke="#000000" stroke-linecap="round" stroke-linejoin="round" stroke-width="5.000000"
	d="
M788.500000,340.000000 
	C777.896606,322.513580 765.304565,306.615997 751.630432,291.382935 
	C733.246338,270.902893 712.341125,253.567551 689.462646,238.556946 
	C656.746582,217.091904 621.222656,202.037247 582.994934,193.522858 
	C570.300171,190.695404 557.519592,188.555557 544.516418,187.326294 
	C530.678223,186.018112 516.840454,184.866959 503.005768,185.607590 
	C468.537445,187.452805 434.926880,193.442291 402.443420,205.851929 
	C369.412964,218.470535 338.961670,235.292587 311.517334,257.521393 
	C282.970062,280.643585 258.654205,307.551086 239.466949,338.979828 
	C239.063568,339.640564 238.166672,340.000000 237.500015,340.500000 
"/>
<path fill="none" opacity="1.000000" stroke="#000000" stroke-linecap="round" stroke-linejoin="round" stroke-width="5.000000"
	d="
M281.500000,550.000000 
	C281.808380,561.044128 285.007599,571.501343 288.000702,581.999817 
	C294.518433,604.861023 304.428253,626.225403 317.580750,645.946167 
	C334.183197,670.839722 354.821716,691.856262 379.437897,709.088684 
	C400.989258,724.175720 424.352631,735.183472 449.520416,742.429077 
	C460.138306,745.485962 471.000488,747.507080 481.968231,749.205139 
	C491.977722,750.754883 502.010773,751.315186 511.999908,751.310059 
	C525.367981,751.303284 538.701843,750.441650 552.033142,748.196716 
	C579.739929,743.530945 605.615173,734.165955 629.970276,720.447266 
	C643.966125,712.563660 656.835754,703.053223 669.061829,692.572144 
	C684.658691,679.201416 698.129944,664.033325 709.466736,646.977844 
	C723.210022,626.302063 733.231812,603.873962 739.874390,579.965088 
	C740.157104,578.947510 742.316711,577.950012 740.500000,576.500000 
"/>
<path fill="none" opacity="1.000000" stroke="#000000" stroke-linecap="round" stroke-linejoin="round" stroke-width="5.000000"
	d="
M239.500000,689.500000 
	C252.747910,710.182983 267.976746,729.280762 285.516998,746.482666 
	C304.834473,765.427551 326.135773,781.840332 349.512360,795.478821 
	C382.843170,814.924805 418.320526,828.595886 456.492767,835.042908 
	C470.417938,837.394775 484.396515,838.728333 498.489380,839.660645 
	C515.243713,840.769043 531.898315,840.061646 548.486084,838.364075 
	C565.574585,836.615173 582.426697,833.198059 599.008667,828.530701 
	C620.087219,822.597717 640.518494,815.049805 660.002014,805.003967 
	C685.348206,791.935364 708.620911,775.931580 730.069885,757.079529 
	C752.621765,737.258179 771.530518,714.460815 788.000000,689.500000 
"/>
<path fill="none" opacity="1.000000" stroke="#000000" stroke-linecap="round" stroke-linejoin="round" stroke-width="12.000000"
	d="
M727.250000,572.000000 
	C722.707520,589.631470 716.132507,606.465088 707.504761,622.502563 
	C694.349365,646.956238 676.951111,667.810547 655.562805,685.575623 
	C632.155945,705.017212 606.012878,719.164673 576.978577,727.929077 
	C562.501221,732.299255 547.684875,735.051697 532.513977,736.186707 
	C525.828125,736.686951 519.174744,736.968689 512.500000,736.973816 
	C489.951385,736.991150 468.017975,733.333923 446.479980,726.563721 
	C398.950714,711.623474 361.393738,683.037781 332.629761,642.906982 
	C314.907288,618.181030 303.211395,590.526733 297.487640,560.502380 
	C297.420471,560.150085 297.070312,559.848755 297.014008,559.497742 
	C295.449982,549.749207 294.350891,548.927734 284.999878,548.970581 
	C264.333649,549.065369 243.666580,549.035645 223.000061,548.978638 
	C216.708710,548.961304 215.853943,547.660400 216.500000,540.000000 
"/>
<path fill="none" opacity="1.000000" stroke="#000000" stroke-linecap="round" stroke-linejoin="round" stroke-width="18.000000"
	d="
M396.500000,435.500000 
	C396.062897,441.108643 392.231201,445.199646 389.965057,449.983459 
	C385.904968,458.554474 382.692932,467.410645 379.941315,476.482208 
	C377.550629,484.363831 376.493347,484.744507 368.504944,485.548981 
	C358.984009,486.507751 349.497864,487.816223 340.000916,489.007263 
	C335.320892,489.594177 333.644104,492.963928 333.567200,497.001282 
	C333.367188,507.497467 333.351746,518.002930 333.558960,528.498840 
	C333.672241,534.236389 337.784363,536.835144 345.493713,537.566223 
	C354.853516,538.453979 364.170197,539.806091 373.497742,541.017517 
	C376.119812,541.357971 377.509857,542.681702 378.664825,545.430725 
	C381.355133,551.834229 382.468353,558.698364 385.330078,565.076233 
	C387.996979,571.019836 390.623688,576.919556 393.974487,582.515259 
	C397.722382,588.774109 397.446838,590.302734 392.505890,596.005127 
	C386.314667,603.150513 380.117096,610.291504 374.018677,617.515747 
	C370.379089,621.827209 370.433502,625.126099 374.006165,629.494934 
	C380.671021,637.645142 388.115448,645.053589 396.030457,651.965088 
	C401.380981,656.637207 404.941132,656.765442 409.932922,651.930725 
	C416.318695,645.745911 423.512360,640.542847 430.024658,634.526672 
	C435.675507,629.306396 436.231537,629.263916 443.488190,633.022827 
	C454.892242,638.930054 466.798462,643.631165 479.037567,647.377258 
	C484.002350,648.896912 485.499664,651.858398 486.066742,656.491821 
	C487.355011,667.017761 488.896149,677.516479 490.556183,687.991089 
	C491.140411,691.677490 493.718567,693.656006 497.499329,694.007080 
	C508.167908,694.998108 518.831726,693.814087 529.500671,693.869019 
	C534.672607,693.895691 536.710449,689.702454 537.581543,682.009216 
	C538.644409,672.621948 540.023926,663.265015 541.909851,653.981689 
	C542.719299,649.997375 544.651428,647.987488 548.485718,646.947266 
	C561.406433,643.441956 573.781677,638.455566 585.452759,631.915649 
	C589.734802,629.516235 592.837708,630.807861 595.994080,633.506958 
	C603.179626,639.651550 610.316406,645.853088 617.505371,651.993713 
	C623.204285,656.861450 626.591614,656.782532 631.985291,651.484985 
	C638.879456,644.713684 645.740723,637.905273 652.475464,630.976196 
	C657.453979,625.853943 657.524109,622.270874 652.988159,617.010193 
	C647.203735,610.301392 641.399292,603.607422 635.480469,597.017517 
	C630.103027,591.030273 629.352783,588.592896 633.593994,582.061035 
	C639.064636,573.635620 643.065552,564.549561 645.312195,554.955994 
	C647.752991,544.533630 652.759766,539.426575 664.007019,539.767517 
	C671.469849,539.993774 679.026794,538.164368 686.491272,536.946350 
	C692.133789,536.025574 693.957947,533.825806 693.954590,528.000000 
	C693.948608,517.499939 693.755615,506.997528 693.462646,496.501038 
	C693.315308,491.225128 690.691589,489.160156 684.502441,488.478088 
	C674.660034,487.393494 664.846130,486.035858 654.993103,485.070404 
	C651.511108,484.729248 649.436401,483.245239 648.503479,479.998993 
	C644.431152,465.828674 638.704468,452.363922 631.555603,439.469177 
	C630.022705,436.704254 630.834412,433.954620 632.972168,431.475983 
	C639.382935,424.042755 645.599670,416.442108 652.019714,409.017090 
	C657.872253,402.248444 657.889832,399.489716 651.491089,393.008759 
	C645.198425,386.635284 638.863647,380.302582 632.490906,374.009186 
	C626.837036,368.425659 623.207397,368.285645 617.013245,373.515717 
	C609.789673,379.614960 602.489380,385.643036 595.576904,392.082520 
	C592.257996,395.174347 589.179382,395.406067 585.502136,393.495911 
	C573.781555,387.407562 561.792358,381.942505 548.988220,378.544281 
	C543.129211,376.989288 541.736145,372.638855 540.974487,367.503784 
	C539.563538,357.990570 538.097290,348.483246 536.464478,339.006134 
	C535.442017,333.071930 533.548401,331.569519 527.499817,331.518951 
	C518.667175,331.445160 509.833160,331.466125 501.000061,331.510803 
	C494.047119,331.545990 491.642059,333.614288 490.508698,340.501434 
	C488.973724,349.829010 487.094421,359.125977 486.152710,368.515320 
	C485.591095,374.115417 482.893127,377.090179 477.989899,378.463989 
	C465.587830,381.938904 453.930115,387.149078 442.474579,392.949768 
	C436.166840,396.143768 435.852600,395.727936 430.471497,391.032654 
	C423.253174,384.734192 415.873657,378.617828 408.485413,372.517639 
	C403.770416,368.624634 401.117554,368.512146 396.536407,372.541382 
	C388.293945,379.790802 380.743256,387.759094 373.531525,396.027496 
	C370.640533,399.342041 370.552002,402.688873 373.554749,406.456390 
	C378.859375,413.112091 384.496796,419.502716 390.001465,425.998749 
	C392.401611,428.831207 394.914825,431.580048 396.500000,435.000000 
"/>
<path fill="none" opacity="1.000000" stroke="#000000" stroke-linecap="round" stroke-linejoin="round" stroke-width="6.000000"
	d="
M4.500000,395.000000 
	C6.833333,396.450317 9.162850,394.904541 11.500607,394.922974 
	C29.332834,395.063507 47.166718,395.019806 64.999931,394.974030 
	C67.147484,394.968536 68.859924,395.186127 70.569176,396.932281 
	C74.689079,401.141205 79.240372,404.923431 83.488045,409.012390 
	C111.511177,435.988403 139.503708,462.996155 167.491882,490.008423 
	C169.412781,491.862305 171.641602,493.542999 172.000000,496.500000 
"/>
<path fill="none" opacity="1.000000" stroke="#000000" stroke-linecap="round" stroke-linejoin="round" stroke-width="6.000000"
	d="
M853.500000,530.000000 
	C854.403076,533.064209 856.872925,534.915527 859.011230,536.988403 
	C884.482178,561.681580 910.108887,586.214661 935.018921,611.481323 
	C941.058167,617.606995 947.418579,623.416138 953.450500,629.548706 
	C955.379822,631.510132 957.387573,632.052856 960.000183,632.042847 
	C980.333191,631.965332 1000.666687,632.000000 1021.000000,632.000000 
"/>
<path fill="none" opacity="1.000000" stroke="#000000" stroke-linecap="round" stroke-linejoin="round" stroke-width="6.000000"
	d="
M874.500000,616.000000 
	C840.171021,617.058777 805.832886,616.247314 771.499939,616.492310 
	C769.512268,616.506470 767.932251,616.378357 766.912354,618.965454 
	C759.786377,637.041809 750.146545,653.799072 739.468323,669.979126 
	C739.030334,670.642761 738.814026,671.000000 739.500000,671.500000 
"/>
<path fill="none" opacity="1.000000" stroke="#000000" stroke-linecap="round" stroke-linejoin="round" stroke-width="5.000000"
	d="
M175.000000,586.500000 
	C197.666672,586.500000 220.333328,586.500000 243.000000,586.500000 
	C249.449448,586.500000 249.702972,586.556396 251.477982,592.756287 
	C259.188660,619.688843 271.210114,644.601868 286.500000,668.000000 
"/>
<path fill="none" opacity="1.000000" stroke="#000000" stroke-linecap="round" stroke-linejoin="round" stroke-width="7.000000"
	d="
M751.500000,378.000000 
	C761.529724,395.447632 769.257507,413.909576 775.432251,433.021881 
	C776.792236,437.231171 778.409851,439.226227 783.502014,439.164215 
	C811.664490,438.821167 839.833313,439.000000 868.000000,439.000000 
"/>
<path fill="none" opacity="1.000000" stroke="#000000" stroke-linecap="round" stroke-linejoin="round" stroke-width="6.000000"
	d="
M275.500000,377.500000 
	C266.649414,394.738647 258.125610,412.124878 252.543854,430.763123 
	C251.508026,434.221893 249.925232,435.678253 245.998093,435.610840 
	C230.336044,435.342041 214.661713,435.739777 199.001740,435.415955 
	C188.492615,435.198639 178.000290,434.611053 167.499817,435.497833 
	C164.610229,435.741913 162.241257,433.868286 159.500000,433.500000 
"/>
<path fill="none" opacity="1.000000" stroke="#000000" stroke-linecap="round" stroke-linejoin="round" stroke-width="12.000000"
	d="
M294.000000,515.500000 
	C282.180115,516.621582 270.332153,515.731201 258.499817,515.991150 
	C246.168213,516.262085 233.816635,515.366577 221.502960,516.531372 
	C218.390228,516.825806 215.623428,515.358276 212.498596,515.404236 
	C197.835083,515.619690 183.166672,515.500000 168.500000,515.500000 
	C157.000000,515.500000 145.500000,515.500000 134.000000,515.500000 
	C124.333336,515.500000 114.665497,515.585815 105.000626,515.454163 
	C101.552315,515.407227 98.559196,516.170654 95.999298,518.499207 
	C88.667938,525.168091 81.334610,531.834717 73.999756,538.499756 
	C58.110088,552.938232 42.834476,568.044617 26.530327,582.035339 
	C23.319971,584.790222 20.500004,588.000000 17.500004,591.000000 
"/>
<path fill="none" opacity="1.000000" stroke="#000000" stroke-linecap="round" stroke-linejoin="round" stroke-width="7.000000"
	d="
M108.000000,496.500000 
	C105.815689,497.695435 103.502754,498.041840 100.999931,498.037415 
	C69.000031,497.980682 37.000000,498.000000 5.000000,498.000000 
"/>
<path fill="none" opacity="1.000000" stroke="#000000" stroke-linecap="round" stroke-linejoin="round" stroke-width="7.000000"
	d="
M1021.000000,528.000000 
	C989.166687,528.000000 957.326782,527.655396 925.504883,528.257751 
	C918.138489,528.397217 910.841431,527.662231 903.497742,527.939453 
	C896.174805,528.215820 888.833252,528.015015 881.500061,527.990540 
	C879.357788,527.983398 877.202759,527.810913 875.500000,529.500000 
"/>
<path fill="none" opacity="1.000000" stroke="#000000" stroke-linecap="round" stroke-linejoin="round" stroke-width="10.000000"
	d="
M356.000000,765.500000 
	C364.861755,763.633484 369.710693,757.557495 372.466766,749.488647 
	C374.604858,743.229065 371.741791,736.525452 365.497467,732.503967 
	C361.272034,729.782654 352.473663,728.773682 347.997101,732.996948 
	C345.028351,735.797668 342.084412,738.723389 340.554108,742.521790 
	C335.715149,754.532410 341.701263,762.049622 352.503540,764.986938 
	C353.476898,765.251587 354.500000,765.333374 355.500000,765.500000 
"/>
<path fill="none" opacity="1.000000" stroke="#000000" stroke-linecap="round" stroke-linejoin="round" stroke-width="6.000000"
	d="
M96.000000,444.500000 
	C95.962128,442.256042 94.564430,440.718628 92.974762,439.533875 
	C85.730675,434.134949 79.907074,427.257233 73.578247,420.921844 
	C71.560020,418.901520 69.568657,418.466095 66.999931,418.472076 
	C45.833382,418.521423 24.666666,418.500000 3.500000,418.500000 
"/>
<path fill="none" opacity="1.000000" stroke="#000000" stroke-linecap="round" stroke-linejoin="round" stroke-width="6.000000"
	d="
M161.500000,517.000000 
	C161.883514,520.223389 160.253708,522.449036 158.015152,524.516418 
	C141.986771,539.318970 126.016464,554.184509 109.989876,568.989014 
	C105.222061,573.393250 100.253326,577.581299 95.518272,582.019470 
	C87.949944,589.113281 80.500008,596.333313 73.000008,603.500000 
"/>
<path fill="none" opacity="1.000000" stroke="#000000" stroke-linecap="round" stroke-linejoin="round" stroke-width="6.000000"
	d="
M954.500000,423.500000 
	C958.123230,425.921295 961.576294,426.493408 965.029480,423.029388 
	C967.451477,420.599731 968.265320,418.227570 966.550232,414.973511 
	C964.594421,411.262482 961.263550,410.844788 958.032593,411.633453 
	C954.614258,412.467834 952.922058,415.414948 953.052856,418.998077 
	C953.107727,420.500275 953.744629,421.981171 954.055542,423.225983 
	C936.259399,439.753693 918.674622,456.175537 900.982727,472.481262 
	C890.744263,481.917542 880.349182,491.184265 869.988708,500.487488 
	C867.424622,502.789948 865.557434,505.330933 866.000000,509.000000 
"/>
<path fill="none" opacity="1.000000" stroke="#000000" stroke-linecap="round" stroke-linejoin="round" stroke-width="6.000000"
	d="
M770.500000,511.000000 
	C770.500000,517.666687 770.457031,524.333679 770.515991,530.999878 
	C770.551697,535.038635 769.057922,538.886292 769.431702,543.006165 
	C769.949341,548.712341 771.014832,550.000000 776.500000,550.000000 
	C791.000000,550.000000 805.500244,549.953369 819.999817,550.036804 
	C823.144104,550.054871 825.690002,549.385010 828.053711,547.054443 
	C833.256714,541.924500 837.952209,536.263000 843.961243,531.946106 
	C846.304688,530.262573 848.754822,529.857300 851.479675,529.383240 
	C856.634766,528.486328 861.643799,527.042603 867.005249,527.426453 
	C870.955200,527.709290 873.646790,528.305542 876.288696,532.309509 
	C879.976624,537.898621 885.326904,542.581299 890.588074,546.892578 
	C896.836121,552.012451 902.097107,558.074951 908.010010,563.489014 
	C915.331299,570.192627 922.947205,576.736084 930.030701,583.492065 
	C937.060303,590.196594 944.090393,597.441223 950.447083,605.044250 
	C953.204468,608.342224 956.437683,609.094482 960.500488,609.065491 
	C980.666138,608.921875 1000.833313,609.000000 1021.000000,609.000000 
"/>
<path fill="none" opacity="1.000000" stroke="#000000" stroke-linecap="round" stroke-linejoin="round" stroke-width="12.000000"
	d="
M174.000000,586.000000 
	C173.591248,579.461914 170.190323,574.609314 164.441330,572.136414 
	C158.642838,569.642334 152.566803,570.411255 147.540558,574.549255 
	C142.283051,578.877686 140.758453,586.752319 143.499985,593.000000 
	C146.562180,599.978394 153.323120,604.015747 160.497070,602.979736 
	C166.568970,602.103027 172.681534,596.899536 173.998505,589.499756 
	C174.176132,588.501709 174.333344,587.500000 174.500015,586.500000 
"/>
<path fill="none" opacity="1.000000" stroke="#000000" stroke-linecap="round" stroke-linejoin="round" stroke-width="12.000000"
	d="
M875.000000,616.500000 
	C877.977112,629.492798 886.816223,632.102661 893.976013,630.861572 
	C903.446411,629.220032 907.584412,621.108826 907.008240,613.999329 
	C906.239807,604.517822 898.824951,599.289673 890.998352,599.055420 
	C882.753784,598.808472 876.277039,605.061401 875.488281,613.498901 
	C875.409668,614.340454 875.166687,615.166687 875.000061,616.000000 
"/>
<path fill="none" opacity="1.000000" stroke="#000000" stroke-linecap="round" stroke-linejoin="round" stroke-width="12.000000"
	d="
M160.000000,428.500000 
	C159.110962,420.924835 155.820374,415.305328 148.011520,412.961578 
	C141.353210,410.963196 135.140717,412.804169 131.009293,418.506744 
	C126.551979,424.659119 127.195938,432.549011 130.562531,437.457092 
	C134.552109,443.273376 141.549088,445.519073 148.488953,443.462708 
	C155.598145,441.356201 158.921295,436.018036 160.000000,429.000000 
"/>
<path fill="none" opacity="1.000000" stroke="#000000" stroke-linecap="round" stroke-linejoin="round" stroke-width="13.000000"
	d="
M1009.000000,436.999969 
	C994.833313,449.999969 980.686890,463.022125 966.493408,475.992798 
	C955.693237,485.862427 944.767822,495.595917 934.033447,505.536133 
	C929.961914,509.306519 925.389832,510.162018 919.998901,510.109039 
	C905.002014,509.961609 890.000366,510.411987 874.999939,510.479950 
	C856.500305,510.563782 837.987671,510.929810 819.502808,510.400818 
	C790.664795,509.575531 761.832031,510.396240 733.000000,510.000000 
"/>
<path fill="none" opacity="1.000000" stroke="#000000" stroke-linecap="round" stroke-linejoin="round" stroke-width="6.000000"
	d="
M396.500000,244.500000 
	C395.081207,245.049072 393.881805,243.936340 393.071686,243.393112 
	C387.490875,239.651093 382.494965,241.814056 378.070923,245.095612 
	C372.837128,248.977844 370.919495,254.385956 372.695892,261.014496 
	C374.217773,266.693451 377.181458,271.256989 382.018860,274.471649 
	C389.902771,279.710876 402.475281,273.943512 403.360748,264.486969 
	C403.641571,261.487885 405.231781,262.764343 406.500000,262.500000 
"/>
<path fill="none" opacity="1.000000" stroke="#000000" stroke-linecap="round" stroke-linejoin="round" stroke-width="7.000000"
	d="
M1007.000000,581.500000 
	C1005.228210,582.343384 1003.338745,581.984009 1001.500000,581.985901 
	C980.333313,582.008057 959.166687,581.998657 938.000000,582.001953 
	C935.721375,582.002319 933.357788,581.661560 931.500000,583.500000 
"/>
<path fill="none" opacity="1.000000" stroke="#000000" stroke-linecap="round" stroke-linejoin="round" stroke-width="6.000000"
	d="
M149.000000,496.000000 
	C148.858490,492.793335 146.569763,490.915466 144.481873,489.019989 
	C130.162460,476.020233 116.110939,462.739502 102.528961,448.971436 
	C99.584236,445.986359 96.889877,443.417206 92.447823,446.422882 
	C91.647560,446.964386 90.166664,446.500000 89.000000,446.500000 
	C73.333336,446.500000 57.666473,446.545105 42.000099,446.477112 
	C35.999489,446.451080 30.000505,446.061035 23.999846,446.032288 
	C18.899860,446.007874 18.625589,446.678497 18.422596,451.997040 
	C18.287970,455.524261 15.581252,457.456909 12.483831,458.449554 
	C9.425690,459.429626 6.009404,457.328918 4.602205,453.462799 
	C4.136358,452.182983 3.979653,451.353668 2.500000,451.500000 
"/>
<path fill="none" opacity="1.000000" stroke="#000000" stroke-linecap="round" stroke-linejoin="round" stroke-width="12.000000"
	d="
M191.500000,459.500000 
	C185.748322,460.054474 180.906601,461.832733 177.937546,467.467072 
	C173.388672,476.099457 176.867111,486.276062 184.054321,489.892029 
	C192.534821,494.158630 201.506714,490.743378 205.508667,482.504211 
	C210.803497,471.603241 204.824600,461.384644 192.000000,459.500000 
"/>
<path fill="none" opacity="1.000000" stroke="#000000" stroke-linecap="round" stroke-linejoin="round" stroke-width="12.000000"
	d="
M885.500000,423.000000 
	C892.626526,424.775574 898.333740,427.777557 900.114868,435.975037 
	C901.799927,443.730530 897.690979,452.177521 889.992249,454.473999 
	C880.317932,457.359833 870.653870,451.078735 868.994690,442.000977 
	C867.666931,434.736511 872.441772,427.092834 880.003113,424.509125 
	C881.648499,423.946838 883.333313,423.500000 885.000000,423.000000 
"/>
<path fill="none" opacity="1.000000" stroke="#000000" stroke-linecap="round" stroke-linejoin="round" stroke-width="6.000000"
	d="
M296.000000,360.000000 
	C301.434174,356.783966 304.240631,351.407166 306.352386,345.942963 
	C308.445404,340.527130 303.457550,331.871643 297.000000,328.000000 
	C291.459106,324.677979 283.437683,325.271210 279.102173,330.091888 
	C276.138824,333.386841 272.337494,336.307159 271.274902,341.005646 
	C270.759094,343.286499 268.563904,341.984436 267.500000,343.000000 
"/>
<path fill="none" opacity="1.000000" stroke="#000000" stroke-linecap="round" stroke-linejoin="round" stroke-width="6.000000"
	d="
M870.000000,451.500000 
	C853.458130,467.825256 836.180664,483.360565 819.003540,499.003876 
	C816.040466,501.702332 812.964172,504.363617 813.500000,509.000000 
"/>
<path fill="none" opacity="1.000000" stroke="#000000" stroke-linecap="round" stroke-linejoin="round" stroke-width="6.000000"
	d="
M665.500000,257.000000 
	C656.024780,258.524750 651.420044,265.069336 649.069946,273.519440 
	C647.397034,279.534943 650.659912,285.954010 657.024963,289.454559 
	C665.808044,294.284912 666.995178,293.711212 672.488037,285.492004 
	C672.897766,284.878998 673.137085,284.152069 673.512939,283.356873 
	C672.260193,280.837341 669.753601,279.556641 667.500000,278.000000 
"/>
<path fill="none" opacity="1.000000" stroke="#000000" stroke-linecap="round" stroke-linejoin="round" stroke-width="6.000000"
	d="
M220.000000,517.500000 
	C220.217590,521.242676 218.013443,523.702209 215.500290,526.000305 
	C199.572693,540.565247 183.076172,554.515930 168.000000,570.000000 
"/>
<path fill="none" opacity="1.000000" stroke="#000000" stroke-linecap="round" stroke-linejoin="round" stroke-width="6.000000"
	d="
M95.000000,545.000000 
	C100.548134,550.355530 103.125427,550.705444 107.031998,547.034058 
	C109.530190,544.686279 109.687820,541.482666 108.777649,539.084412 
	C107.771431,536.432983 104.652405,535.056946 101.507019,535.545227 
	C98.423164,536.023987 95.796219,537.346558 95.517204,541.001343 
	C95.391479,542.648132 95.173996,543.861877 93.572029,545.093689 
	C88.706436,548.834961 84.035141,552.857788 79.526062,557.028137 
	C68.446472,567.275452 57.488789,577.654785 46.510189,588.010803 
	C44.505444,589.901917 42.616829,591.900330 39.500000,591.500000 
"/>
<path fill="none" opacity="1.000000" stroke="#000000" stroke-linecap="round" stroke-linejoin="round" stroke-width="6.000000"
	d="
M831.500000,581.999939 
	C819.666687,582.166626 807.832581,582.489075 796.000305,582.433655 
	C790.165222,582.406372 784.333313,581.560181 778.500000,582.500000 
"/>
<path fill="none" opacity="1.000000" stroke="#000000" stroke-linecap="round" stroke-linejoin="round" stroke-width="12.000000"
	d="
M849.500000,596.000000 
	C855.081848,595.076111 859.910278,592.878479 862.468262,587.484924 
	C865.126465,581.879883 864.889832,576.247498 861.468994,571.020264 
	C857.846008,565.484070 852.310852,563.366211 846.009888,564.086670 
	C837.927063,565.010803 831.259949,573.652832 832.000000,581.500000 
	C832.642883,588.317871 840.363037,595.067017 847.998901,595.518738 
	C848.340881,595.539062 848.666626,595.833374 849.000000,596.000000 
"/>
<path fill="none" opacity="1.000000" stroke="#000000" stroke-linecap="round" stroke-linejoin="round" stroke-width="6.000000"
	d="
M982.500000,436.500000 
	C974.333313,443.833313 966.140808,451.138092 958.007385,458.508118 
	C950.139954,465.637146 942.420227,472.933014 934.421387,479.909882 
	C932.947510,481.195465 932.514221,482.261414 932.469238,483.999207 
	C932.326050,489.526855 931.203247,490.748840 925.500000,492.000000 
"/>
<path fill="none" opacity="1.000000" stroke="#000000" stroke-linecap="round" stroke-linejoin="round" stroke-width="6.000000"
	d="
M585.500000,220.500000 
	C587.144775,223.566055 585.003723,226.263031 584.375305,228.971069 
	C582.467163,237.194397 579.994934,245.286835 577.705139,253.564880 
	C583.409790,256.735260 589.568970,257.784973 595.500000,259.500000 
"/>
<path fill="none" opacity="1.000000" stroke="#000000" stroke-linecap="round" stroke-linejoin="round" stroke-width="10.000000"
	d="
M715.500000,690.500000 
	C708.325867,690.767517 703.773865,695.223389 701.178650,701.079163 
	C698.817932,706.405762 699.761841,712.307129 703.575378,716.937927 
	C707.739319,721.994324 712.656982,725.997559 720.003845,725.565369 
	C726.705994,725.171143 735.666992,716.748901 735.999023,709.999939 
	C736.125305,707.432861 734.458801,706.060425 732.491028,705.016907 
	C728.184692,702.733093 726.665710,699.190918 727.500000,694.500000 
"/>
<path fill="none" opacity="1.000000" stroke="#000000" stroke-linecap="round" stroke-linejoin="round" stroke-width="6.000000"
	d="
M54.500000,530.500000 
	C52.318142,530.878845 52.696976,529.348633 52.462856,528.006470 
	C51.189915,520.709045 45.248882,514.819275 37.498936,514.528381 
	C31.036495,514.285767 24.155571,517.582642 21.013432,525.505310 
	C18.484049,531.882874 21.537378,540.047913 28.000017,544.500000 
	C32.662983,547.712280 42.017788,546.856079 46.523964,543.028198 
	C50.290909,539.828369 52.346260,535.874817 52.750000,531.000000 
"/>
<path fill="none" opacity="1.000000" stroke="#000000" stroke-linecap="round" stroke-linejoin="round" stroke-width="7.000000"
	d="
M950.500000,554.500000 
	C960.484131,555.620422 970.501709,554.716797 980.500244,554.991455 
	C985.332214,555.124207 990.166687,555.166687 995.000000,555.250000 
"/>
<path fill="none" opacity="1.000000" stroke="#000000" stroke-linecap="round" stroke-linejoin="round" stroke-width="6.000000"
	d="
M1008.000000,581.500000 
	C1014.650452,584.036987 1018.411865,583.284668 1020.500000,579.000000 
	C1022.395447,575.110657 1021.018433,571.840271 1016.500000,569.500000 
	C1012.610107,567.485291 1010.416809,568.945496 1007.351440,573.397705 
	C1005.261780,576.432739 1008.550110,578.500000 1007.500000,581.000000 
"/>
<path fill="none" opacity="1.000000" stroke="#000000" stroke-linecap="round" stroke-linejoin="round" stroke-width="7.000000"
	d="
M92.000000,480.000000 
	C97.789932,484.876740 104.122665,489.121613 108.154434,495.908264 
	C109.160622,497.601959 112.035606,498.065338 114.500412,498.040253 
	C124.166069,497.941833 133.889160,498.635406 143.481781,497.792572 
	C150.740448,497.154816 157.839096,498.860291 164.997864,497.982513 
	C169.342819,497.449768 173.666672,497.080048 178.000000,498.000000 
"/>
<path fill="none" opacity="1.000000" stroke="#000000" stroke-linecap="round" stroke-linejoin="round" stroke-width="6.000000"
	d="
M17.000000,591.000000 
	C14.323111,589.336914 11.400429,588.732056 8.525523,590.055420 
	C5.246547,591.564941 3.977123,594.563171 4.570191,597.987854 
	C5.096290,601.025818 9.780300,604.018433 12.499989,603.499939 
	C16.433676,602.750122 18.505798,600.145752 18.505808,596.000000 
	C18.505812,594.417969 18.636105,592.821594 17.500000,591.500000 
"/>
<path fill="none" opacity="1.000000" stroke="#000000" stroke-linecap="round" stroke-linejoin="round" stroke-width="7.000000"
	d="
M76.000000,473.000000 
	C63.000000,473.000000 50.000000,473.000000 37.000000,473.000000 
"/>
<path fill="none" opacity="1.000000" stroke="#000000" stroke-linecap="round" stroke-linejoin="round" stroke-width="6.000000"
	d="
M258.000000,476.000000 
	C257.500000,484.500000 256.858582,492.994995 256.557556,501.502045 
	C256.398712,505.990509 256.833344,510.500000 257.000000,515.000000 
"/>
<path fill="none" opacity="1.000000" stroke="#000000" stroke-linecap="round" stroke-linejoin="round" stroke-width="6.000000"
	d="
M572.500000,217.000000 
	C567.661926,219.066635 563.160706,216.434082 558.495850,216.050354 
	C556.353516,215.874115 554.166687,214.708374 551.968933,216.145218 
	C550.659851,225.332321 549.424500,234.681076 547.957092,243.993240 
	C547.296692,248.183426 549.515015,249.505676 552.999573,250.002853 
	C557.001343,250.573822 561.000000,251.166672 565.000000,251.750015 
"/>
<path fill="none" opacity="1.000000" stroke="#000000" stroke-linecap="round" stroke-linejoin="round" stroke-width="23.000000"
	d="
M563.500000,513.500000 
	C557.764160,524.792786 553.346313,536.631592 548.824036,548.353943 
	C538.622009,550.936157 529.462097,556.483337 519.534790,560.095642 
	C515.284241,561.642273 512.644958,564.701782 513.886780,570.026428 
	C514.512695,572.710327 513.059937,575.643921 513.750000,578.500000 
"/>
<path fill="none" opacity="1.000000" stroke="#000000" stroke-linecap="round" stroke-linejoin="round" stroke-width="23.000000"
	d="
M514.000000,564.000000 
	C502.951904,556.924438 490.501801,552.959595 479.316559,548.028625 
	C473.194489,536.632812 469.833954,524.420044 463.500000,513.500000 
"/>
<path fill="none" opacity="1.000000" stroke="#000000" stroke-linecap="round" stroke-linejoin="round" stroke-width="23.000000"
	d="
M478.000000,477.500000 
	C478.000000,478.166656 478.204346,478.917480 477.969635,479.487488 
	C473.844971,489.504791 469.465332,499.423035 465.599304,509.537964 
	C464.057983,513.570740 461.264862,514.007690 458.013275,513.425781 
	C453.578308,512.632019 449.301544,513.007080 445.000000,514.000000 
"/>
<path fill="none" opacity="1.000000" stroke="#000000" stroke-linecap="round" stroke-linejoin="round" stroke-width="23.000000"
	d="
M453.500000,465.000000 
	C457.500000,465.333344 461.575897,465.300262 465.477509,466.108582 
	C469.000244,466.838409 471.430237,469.855255 473.391357,472.578247 
	C477.036804,477.639771 481.138214,477.351135 486.008759,475.018311 
	C495.289032,470.573486 504.621216,466.237000 513.416138,462.098206 
	C525.497131,467.550171 537.127136,472.798615 549.031067,478.170685 
	C553.194580,488.389099 557.656311,499.171173 561.951660,510.019165 
	C562.841553,512.266602 563.869202,514.123718 566.485657,513.444763 
	C571.179382,512.226868 575.848816,514.201416 580.500000,513.250000 
"/>
<path fill="none" opacity="1.000000" stroke="#000000" stroke-linecap="round" stroke-linejoin="round" stroke-width="9.000000"
	d="
M397.500000,749.500000 
	C402.735779,759.597107 406.812286,770.067261 408.019806,781.497925 
	C408.392975,785.030701 409.611328,788.179626 413.000000,790.000000 
"/>
<path fill="none" opacity="1.000000" stroke="#000000" stroke-linecap="round" stroke-linejoin="round" stroke-width="6.000000"
	d="
M724.500000,301.750000 
	C723.628845,302.279327 721.791077,301.963379 722.055664,303.490356 
	C723.491028,311.774628 719.122131,318.856689 717.605164,326.520813 
	C716.869995,330.235382 715.292603,334.085175 717.000000,338.000000 
"/>
<path fill="none" opacity="1.000000" stroke="#000000" stroke-linecap="round" stroke-linejoin="round" stroke-width="6.000000"
	d="
M343.500000,263.500000 
	C342.040070,266.085846 342.084900,268.684021 342.958710,271.512756 
	C345.573486,279.977295 347.935120,288.520081 350.556610,296.982452 
	C351.059204,298.604767 351.731201,299.980194 350.505829,301.504669 
	C348.715057,303.732605 347.330017,301.800903 346.019714,300.968933 
	C337.980347,295.864288 330.000000,290.666656 322.000000,285.500000 
"/>
<path fill="none" opacity="1.000000" stroke="#000000" stroke-linecap="round" stroke-linejoin="round" stroke-width="6.000000"
	d="
M66.500000,601.500000 
	C62.179436,600.804138 60.428459,603.930176 59.646252,607.036804 
	C58.801121,610.393433 61.268105,612.657471 63.973808,614.537720 
	C66.929512,616.591736 69.496048,615.022583 71.403084,613.387024 
	C74.036316,611.128540 74.351044,607.662964 72.917191,604.538025 
	C71.980751,602.497131 69.929840,601.406433 67.500000,601.500000 
"/>
<path fill="none" opacity="1.000000" stroke="#000000" stroke-linecap="round" stroke-linejoin="round" stroke-width="6.000000"
	d="
M453.500000,218.500000 
	C455.333344,228.333328 457.155304,238.168823 459.014771,247.997208 
	C459.239410,249.184433 459.666687,250.333328 460.000031,251.500000 
"/>
<path fill="none" opacity="1.000000" stroke="#000000" stroke-linecap="round" stroke-linejoin="round" stroke-width="9.000000"
	d="
M699.500000,753.000000 
	C689.050720,751.180664 678.548584,749.594971 668.987061,744.524353 
	C665.259583,742.547607 661.264099,741.582214 657.000000,742.500000 
"/>
<path fill="none" opacity="1.000000" stroke="#000000" stroke-linecap="round" stroke-linejoin="round" stroke-width="10.000000"
	d="
M451.500031,773.000000 
	C450.166687,779.833313 449.227905,786.777771 447.347809,793.457153 
	C446.269623,797.287415 445.895416,801.269836 444.500000,805.000000 
"/>
<path fill="none" opacity="1.000000" stroke="#000000" stroke-linecap="round" stroke-linejoin="round" stroke-width="7.000000"
	d="
M525.000000,215.000000 
	C524.666626,225.666672 524.333313,236.333328 524.000000,247.000000 
"/>
<path fill="none" opacity="1.000000" stroke="#000000" stroke-linecap="round" stroke-linejoin="round" stroke-width="10.000000"
	d="
M489.000000,779.500000 
	C488.333313,790.000000 487.666656,800.500000 487.000000,811.000000 
"/>
<path fill="none" opacity="1.000000" stroke="#000000" stroke-linecap="round" stroke-linejoin="round" stroke-width="8.000000"
	d="
M339.500000,708.500000 
	C335.568756,708.750671 331.678497,709.530579 327.934662,707.100647 
	C326.356232,706.076172 324.230255,707.037476 322.496490,707.993652 
	C318.904724,709.974609 314.978760,711.187134 311.442078,713.407715 
	C305.726746,716.996338 299.142609,717.635803 292.500000,717.500000 
"/>
<path fill="none" opacity="1.000000" stroke="#000000" stroke-linecap="round" stroke-linejoin="round" stroke-width="6.000000"
	d="
M473.500000,219.500000 
	C470.267517,224.057175 473.403259,228.833115 473.175018,233.508545 
	C472.916504,238.804840 474.000000,244.166672 474.500000,249.500000 
"/>
<path fill="none" opacity="1.000000" stroke="#000000" stroke-linecap="round" stroke-linejoin="round" stroke-width="10.000000"
	d="
M283.500000,710.500000 
	C283.049835,706.453247 283.969330,703.204712 287.421295,700.403015 
	C291.425934,697.152771 294.908417,693.237793 298.472656,689.474121 
	C300.717987,687.103333 303.174164,685.328186 306.987518,684.952698 
	C309.693573,688.182007 308.649567,691.649048 306.969238,694.984497 
	C304.420441,700.043884 301.730347,705.035522 298.970001,709.983276 
	C297.793243,712.092651 297.391541,714.188416 298.000000,716.500000 
"/>
<path fill="none" opacity="1.000000" stroke="#000000" stroke-linecap="round" stroke-linejoin="round" stroke-width="8.000000"
	d="
M586.500000,787.499939 
	C589.833313,786.666626 593.142273,785.714050 596.505310,785.025879 
	C602.611633,783.776306 606.211365,779.060181 605.500000,773.000000 
	C604.906067,767.940308 601.041321,765.251709 594.510193,766.080505 
	C589.481567,766.718689 584.404297,767.726074 580.500000,771.500000 
"/>
<path fill="none" opacity="1.000000" stroke="#000000" stroke-linecap="round" stroke-linejoin="round" stroke-width="6.000000"
	d="
M498.000000,214.000000 
	C499.029236,221.979599 498.774200,230.086914 500.460510,238.008408 
	C500.876617,239.962936 500.278900,241.879089 499.000000,243.500000 
"/>
<path fill="none" opacity="1.000000" stroke="#000000" stroke-linecap="round" stroke-linejoin="round" stroke-width="10.000000"
	d="
M620.500000,752.500000 
	C624.662781,752.928101 627.418884,754.810608 629.095581,758.961365 
	C631.912964,765.935791 635.351257,772.658447 638.491943,779.503662 
	C639.913208,782.601440 641.866577,785.016785 645.500000,785.500000 
"/>
<path fill="none" opacity="1.000000" stroke="#000000" stroke-linecap="round" stroke-linejoin="round" stroke-width="6.000000"
	d="
M619.500000,231.500000 
	C617.764160,232.335327 616.678833,233.749802 616.003418,235.501328 
	C612.662537,244.165085 609.218628,252.792465 606.102783,261.536621 
	C605.523193,263.163177 603.937683,262.338776 603.500000,263.500000 
"/>
<path fill="none" opacity="1.000000" stroke="#000000" stroke-linecap="round" stroke-linejoin="round" stroke-width="6.000000"
	d="
M646.500000,245.999985 
	C641.833313,255.499985 637.166626,265.000000 632.500000,274.500000 
"/>
<path fill="none" opacity="1.000000" stroke="#000000" stroke-linecap="round" stroke-linejoin="round" stroke-width="6.000000"
	d="
M354.500000,260.000000 
	C360.166656,269.500000 365.833344,279.000000 371.500000,288.500000 
"/>
<path fill="none" opacity="1.000000" stroke="#000000" stroke-linecap="round" stroke-linejoin="round" stroke-width="6.000000"
	d="
M472.500000,214.500000 
	C472.545929,216.739120 472.076019,219.111526 475.485962,219.598404 
	C476.781891,219.783432 477.644714,221.270859 478.563751,222.450317 
	C483.507904,228.795517 489.403473,234.351898 494.033722,240.976425 
	C494.620270,241.815598 495.596954,242.778320 496.512268,242.921661 
	C500.148468,243.491180 499.433746,246.157349 499.500000,248.500000 
"/>
<path fill="none" opacity="1.000000" stroke="#000000" stroke-linecap="round" stroke-linejoin="round" stroke-width="9.000000"
	d="
M400.500000,758.500000 
	C394.734406,760.707275 394.987793,766.548340 393.037872,771.016541 
	C391.033844,775.608704 389.333374,780.333374 387.500031,785.000000 
"/>
<path fill="none" opacity="1.000000" stroke="#000000" stroke-linecap="round" stroke-linejoin="round" stroke-width="9.000000"
	d="
M423.500000,758.500000 
	C426.572601,763.568237 424.592407,768.370117 422.448456,772.976013 
	C419.648193,778.992004 418.264709,785.652222 413.128571,790.632568 
	C410.442810,793.236938 413.940216,796.213318 414.750000,799.000000 
"/>
<path fill="none" opacity="1.000000" stroke="#000000" stroke-linecap="round" stroke-linejoin="round" stroke-width="6.000000"
	d="
M697.500000,272.500000 
	C699.478516,277.398651 695.092957,279.582275 692.906250,282.427948 
	C687.788086,289.088470 682.177002,295.370178 676.417053,302.219635 
	C680.416748,305.769562 684.140198,309.216492 688.032043,312.461578 
	C689.694458,313.847687 690.786804,315.273285 690.500000,317.500000 
"/>
<path fill="none" opacity="1.000000" stroke="#000000" stroke-linecap="round" stroke-linejoin="round" stroke-width="6.000000"
	d="
M755.000000,341.000000 
	C746.815796,346.580719 738.824768,352.424896 730.839539,358.281189 
	C729.377258,359.353607 729.536133,360.669006 728.500000,361.500000 
"/>
<path fill="none" opacity="1.000000" stroke="#000000" stroke-linecap="round" stroke-linejoin="round" stroke-width="9.000000"
	d="
M675.000000,718.500000 
	C673.223877,725.631226 679.032532,729.460144 682.030396,734.481812 
	C684.637573,738.849121 688.786133,742.281738 689.974854,747.505737 
	C690.155151,748.298035 690.000000,749.166687 690.000000,750.000000 
"/>
<path fill="none" opacity="1.000000" stroke="#000000" stroke-linecap="round" stroke-linejoin="round" stroke-width="9.000000"
	d="
M646.500000,740.000000 
	C649.855408,739.770081 652.930908,740.869873 656.110107,741.843506 
	C657.048523,752.824402 666.112061,758.934082 670.945984,767.843750 
	C670.668945,769.500305 670.334473,771.500183 670.000000,773.500000 
"/>
<path fill="none" opacity="1.000000" stroke="#000000" stroke-linecap="round" stroke-linejoin="round" stroke-width="6.000000"
	d="
M271.000000,342.500000 
	C278.666656,348.000000 286.237274,353.642609 294.059204,358.912109 
	C296.370758,360.469299 296.682617,362.204865 296.500000,364.500000 
"/>
<path fill="none" opacity="1.000000" stroke="#000000" stroke-linecap="round" stroke-linejoin="round" stroke-width="6.000000"
	d="
M1022.000000,431.500000 
	C1021.117371,428.208923 1019.738953,425.290924 1015.996216,424.518311 
	C1012.458557,423.788025 1010.446899,426.300140 1008.544556,428.537872 
	C1006.442627,431.010254 1007.782715,433.945160 1009.150513,435.894379 
	C1010.835388,438.295410 1014.208191,439.399170 1016.930603,438.324280 
	C1019.354675,437.367218 1021.832825,435.384216 1021.750000,432.000000 
"/>
<path fill="none" opacity="1.000000" stroke="#000000" stroke-linecap="round" stroke-linejoin="round" stroke-width="10.000000"
	d="
M331.000000,709.500000 
	C331.089996,712.044983 329.765411,713.846680 328.012451,715.513123 
	C323.143158,720.141968 318.155884,724.667114 313.568817,729.564453 
	C310.957397,732.352478 308.031097,733.199036 304.500000,733.000000 
"/>
<path fill="none" opacity="1.000000" stroke="#000000" stroke-linecap="round" stroke-linejoin="round" stroke-width="6.000000"
	d="
M91.500000,479.500000 
	C91.500000,479.333344 91.501793,479.166626 91.499733,479.000000 
	C91.447159,474.741333 92.562088,470.123322 87.015556,467.960114 
	C81.548126,465.827759 79.589745,470.471802 76.498970,472.997833 
	C80.148087,482.563110 83.020439,483.949768 91.000000,480.000000 
"/>
<path fill="none" opacity="1.000000" stroke="#000000" stroke-linecap="round" stroke-linejoin="round" stroke-width="6.000000"
	d="
M935.500000,548.000000 
	C935.270203,550.833313 933.368225,553.632507 935.487732,556.509033 
	C937.898499,559.780884 943.202759,560.582520 946.481018,557.976074 
	C947.764099,556.955872 948.833435,555.666748 950.000000,554.500000 
	C945.933167,544.777588 943.319031,543.377197 936.000000,547.000000 
"/>
<path fill="none" opacity="1.000000" stroke="#000000" stroke-linecap="round" stroke-linejoin="round" stroke-width="6.000000"
	d="
M721.500000,303.500000 
	C719.565369,303.797363 717.926453,304.608093 716.485718,305.985077 
	C710.519775,311.687347 704.500000,317.333313 698.500000,323.000000 
"/>
<path fill="none" opacity="1.000000" stroke="#000000" stroke-linecap="round" stroke-linejoin="round" stroke-width="6.000000"
	d="
M127.000000,517.000000 
	C127.251373,520.000549 126.379761,522.498352 124.014099,524.516541 
	C118.801872,528.963135 113.666679,533.500000 108.500008,538.000000 
"/>
<path fill="none" opacity="1.000000" stroke="#000000" stroke-linecap="round" stroke-linejoin="round" stroke-width="6.000000"
	d="
M665.500000,255.500000 
	C665.454346,256.575928 665.650330,257.265442 666.992249,257.538239 
	C677.787964,259.733154 680.101807,262.163177 681.500000,272.500000 
"/>
<path fill="none" opacity="1.000000" stroke="#000000" stroke-linecap="round" stroke-linejoin="round" stroke-width="6.000000"
	d="
M739.500000,314.500000 
	C739.654785,317.046692 739.482605,319.266968 737.038452,321.052673 
	C729.870972,326.289215 725.182983,334.402893 716.997803,338.495575 
	C714.303406,339.842773 716.325928,342.719757 715.000000,344.500000 
"/>
<path fill="none" opacity="1.000000" stroke="#000000" stroke-linecap="round" stroke-linejoin="round" stroke-width="6.000000"
	d="
M919.000000,489.500000 
	C913.117859,492.815491 909.670959,498.894257 904.093384,502.639038 
	C902.619019,503.628906 902.362976,506.340759 902.500000,508.500000 
"/>
<path fill="none" opacity="1.000000" stroke="#000000" stroke-linecap="round" stroke-linejoin="round" stroke-width="6.000000"
	d="
M918.000000,530.000000 
	C917.801880,531.465881 918.427551,532.607239 919.506042,533.492615 
	C924.986694,537.992004 929.518066,543.574585 935.500000,547.500000 
"/>
<path fill="none" opacity="1.000000" stroke="#000000" stroke-linecap="round" stroke-linejoin="round" stroke-width="5.000000"
	d="
M426.500000,226.500000 
	C420.496735,226.668350 415.337952,229.503159 410.013947,231.782578 
	C409.034180,232.202042 408.535461,234.046768 409.026001,235.491165 
	C411.805664,243.676071 414.814941,251.786285 417.427887,260.022888 
	C418.490753,263.373383 419.824493,263.611206 423.042938,262.642639 
	C427.832611,261.201202 432.339447,258.647186 437.500000,258.500000 
"/>
<path fill="none" opacity="1.000000" stroke="#000000" stroke-linecap="round" stroke-linejoin="round" stroke-width="5.000000"
	d="
M551.000000,232.000000 
	C555.333313,232.666672 559.649170,233.593018 564.007629,233.886993 
	C566.088318,234.027328 566.599487,234.947266 567.000000,236.500000 
"/>
<path fill="none" opacity="1.000000" stroke="#000000" stroke-linecap="round" stroke-linejoin="round" stroke-width="6.000000"
	d="
M18.000000,447.500000 
	C15.765017,447.236359 14.859458,444.763062 12.509064,444.435059 
	C7.898988,443.791779 5.241085,445.842621 4.000000,451.500000 
"/>
<path fill="none" opacity="1.000000" stroke="#000000" stroke-linecap="round" stroke-linejoin="round" stroke-width="5.000000"
	d="
M606.500000,263.000000 
	C611.818054,266.078430 617.268433,268.810760 623.500000,269.500000 
"/>
<path fill="none" opacity="1.000000" stroke="#000000" stroke-linecap="round" stroke-linejoin="round" stroke-width="10.000000"
	d="
M576.000000,769.250000 
	C579.289246,770.052124 580.695312,772.197937 581.598816,775.472717 
	C584.149414,784.717407 587.166626,793.833313 590.000000,803.000000 
"/>
<path fill="none" opacity="1.000000" stroke="#000000" stroke-linecap="round" stroke-linejoin="round" stroke-width="6.000000"
	d="
M540.500000,213.000000 
	C531.981323,213.785629 523.475769,214.333740 514.989807,212.548447 
	C513.729797,212.283371 512.333313,212.666672 511.000000,212.750000 
"/>
<path fill="none" opacity="1.000000" stroke="#000000" stroke-linecap="round" stroke-linejoin="round" stroke-width="5.000000"
	d="
M430.000000,239.500000 
	C429.717133,241.867188 427.860626,242.406540 426.003143,243.009644 
	C421.992981,244.311661 418.000000,245.666656 414.000000,246.999985 
"/>
<path fill="none" opacity="1.000000" stroke="#000000" stroke-linecap="round" stroke-linejoin="round" stroke-width="5.000000"
	d="
M310.499969,294.000000 
	C306.268982,298.438965 302.037994,302.877960 297.272217,307.877991 
	C305.369507,315.484711 313.272797,322.909210 321.445221,330.586548 
	C325.840332,326.180328 329.920197,322.090179 334.000061,318.000061 
"/>
<path fill="none" opacity="1.000000" stroke="#000000" stroke-linecap="round" stroke-linejoin="round" stroke-width="5.000000"
	d="
M698.500000,277.000000 
	C703.852417,279.793884 707.608948,284.618896 712.500000,288.000000 
"/>
<path fill="none" opacity="1.000000" stroke="#000000" stroke-linecap="round" stroke-linejoin="round" stroke-width="9.000000"
	d="
M503.500000,778.500000 
	C500.546204,777.501648 497.440491,777.740723 494.511566,778.095459 
	C487.873901,778.899170 481.675171,776.584717 475.250000,776.000000 
"/>
<path fill="none" opacity="1.000000" stroke="#000000" stroke-linecap="round" stroke-linejoin="round" stroke-width="6.000000"
	d="
M932.000000,481.000000 
	C926.461914,477.410889 921.854858,477.409454 919.586731,481.547546 
	C917.209351,485.885040 917.803650,489.959167 923.020081,491.428802 
	C924.336548,491.799713 925.776489,491.446045 925.500000,493.500000 
"/>
<path fill="none" opacity="1.000000" stroke="#000000" stroke-linecap="round" stroke-linejoin="round" stroke-width="3.000000"
	d="
M435.500000,617.500000 
	C435.833313,621.666687 436.166656,625.833313 436.500000,630.000000 
"/>
<path fill="none" opacity="1.000000" stroke="#000000" stroke-linecap="round" stroke-linejoin="round" stroke-width="3.000000"
	d="
M436.000000,395.500000 
	C435.833313,399.500000 435.666656,403.500000 435.500000,407.500000 
"/>
<path fill="none" opacity="1.000000" stroke="#000000" stroke-linecap="round" stroke-linejoin="round" stroke-width="3.000000"
	d="
M590.999939,395.500000 
	C591.166626,399.500000 591.333313,403.500000 591.499939,407.500000 
"/>
<path fill="none" opacity="1.000000" stroke="#000000" stroke-linecap="round" stroke-linejoin="round" stroke-width="3.000000"
	d="
M630.500000,590.499939 
	C626.500000,590.833313 622.500000,591.166626 618.500000,591.499939 
"/>
<path fill="none" opacity="1.000000" stroke="#000000" stroke-linecap="round" stroke-linejoin="round" stroke-width="3.000000"
	d="
M408.500000,591.000000 
	C404.666656,591.000000 400.833344,591.000000 397.000000,591.000000 
"/>
<path fill="none" opacity="1.000000" stroke="#000000" stroke-linecap="round" stroke-linejoin="round" stroke-width="10.000000"
	d="
M600.000000,785.000000 
	C605.513306,790.813354 610.172302,797.908264 619.500000,798.000000 
"/>
<path fill="none" opacity="1.000000" stroke="#000000" stroke-linecap="round" stroke-linejoin="round" stroke-width="5.000000"
	d="
M320.500000,307.000000 
	C316.833344,310.833344 313.166656,314.666656 309.500000,318.500000 
"/>
<path fill="none" opacity="1.000000" stroke="#000000" stroke-linecap="round" stroke-linejoin="round" stroke-width="5.000000"
	d="
M689.000000,290.000000 
	C692.666687,293.166656 696.333374,296.333313 700.000000,299.500000 
"/>
<path fill="none" opacity="1.000000" stroke="#000000" stroke-linecap="round" stroke-linejoin="round" stroke-width="5.000000"
	d="
M591.500000,619.500000 
	C591.799866,623.060303 591.055054,626.521118 590.500000,630.000000 
"/>
<path fill="none" opacity="1.000000" stroke="#000000" stroke-linecap="round" stroke-linejoin="round" stroke-width="5.000000"
	d="
M763.500000,350.500000 
	C758.734802,344.012329 753.710083,337.699829 750.000000,330.500000 
"/>
<path fill="none" opacity="1.000000" stroke="#000000" stroke-linecap="round" stroke-linejoin="round" stroke-width="3.000000"
	d="
M307.000000,675.500000 
	C308.290222,678.666687 306.966583,681.833313 307.000000,685.000000 
"/>
<path fill="none" opacity="1.000000" stroke="#000000" stroke-linecap="round" stroke-linejoin="round" stroke-width="3.000000"
	d="
M674.000000,724.000000 
	C672.166687,723.833313 670.333313,723.666687 668.500000,723.500000 
"/>
<path fill="none" opacity="1.000000" stroke="#000000" stroke-linecap="round" stroke-linejoin="round" stroke-width="3.000000"
	d="
M283.000000,704.500000 
	C281.166656,704.500000 279.333344,704.500000 277.500000,704.500000 
"/>
<path fill="none" opacity="1.000000" stroke="#000000" stroke-linecap="round" stroke-linejoin="round" stroke-width="3.000000"
	d="
M723.500000,296.500000 
	C723.333313,298.333344 723.166687,300.166656 723.000000,302.000000 
"/>
<path fill="none" opacity="1.000000" stroke="#000000" stroke-linecap="round" stroke-linejoin="round" stroke-width="3.000000"
	d="
M310.500000,733.000000 
	C310.500000,734.833313 310.500000,736.666687 310.500000,738.500000 
"/>
<path fill="none" opacity="1.000000" stroke="#000000" stroke-linecap="round" stroke-linejoin="round" stroke-width="11.000000"
	d="
M505.500000,420.500000 
	C495.513763,421.764374 485.765259,423.898804 476.493591,427.985443 
	C457.434509,436.385956 442.864868,449.654541 433.017059,468.009155 
	C425.655518,481.729889 421.766357,496.484406 421.602844,512.001099 
	C421.466675,524.922607 423.886566,537.556335 429.029846,549.487122 
	C440.334381,575.709900 459.638153,593.486389 487.040131,601.360352 
	C519.293945,610.628540 548.702393,604.718262 574.536682,582.542725 
	C592.614014,567.025574 602.648682,547.049805 605.234863,523.970276 
	C608.115845,498.260437 601.755066,474.466980 585.023926,453.980438 
	C571.848267,437.847321 554.932861,427.781067 534.993164,422.525879 
	C525.482666,420.019348 515.715149,420.463287 506.000000,420.500000 
"/>
<path fill="none" opacity="1.000000" stroke="#000000" stroke-linecap="round" stroke-linejoin="round" stroke-width="6.000000"
	d="
M986.500000,482.000000 
	C973.657227,485.382446 970.172852,498.950623 976.525513,507.982056 
	C979.963928,512.870300 989.988892,515.875488 994.983032,513.464844 
	C1004.889832,508.682831 1006.966187,501.666107 1005.494568,494.501099 
	C1003.998291,487.216614 997.564453,482.046570 990.000000,482.000824 
	C989.000061,481.994781 988.000000,482.000000 987.000000,482.000000 
"/>
<path fill="none" opacity="1.000000" stroke="#000000" stroke-linecap="round" stroke-linejoin="round" stroke-width="10.000000"
	d="
M539.000000,776.500000 
	C525.475769,780.050354 520.020752,797.799988 529.563354,807.940369 
	C533.965515,812.618286 539.959229,813.519165 545.976013,811.910400 
	C551.184570,810.517639 554.687805,807.378235 556.139465,801.534668 
	C558.825562,790.721863 554.691956,779.773865 545.978821,777.068176 
	C543.955505,776.439880 541.666687,776.666687 539.500000,776.500000 
"/>
</svg>